<?xml version="1.0" encoding="UTF-8" standalone="no"?>
<!-- Created with Inkscape (http://www.inkscape.org/) -->

<svg
   xmlns:dc="http://purl.org/dc/elements/1.1/"
   xmlns:cc="http://creativecommons.org/ns#"
   xmlns:rdf="http://www.w3.org/1999/02/22-rdf-syntax-ns#"
   xmlns:svg="http://www.w3.org/2000/svg"
   xmlns="http://www.w3.org/2000/svg"
   xmlns:xlink="http://www.w3.org/1999/xlink"
   xmlns:sodipodi="http://sodipodi.sourceforge.net/DTD/sodipodi-0.dtd"
   xmlns:inkscape="http://www.inkscape.org/namespaces/inkscape"
   width="210mm"
   height="297mm"
   id="svg3894"
   version="1.1"
   inkscape:version="0.48.4 r9939"
   sodipodi:docname="Nuevo documento 4">
  <defs
     id="defs3896">
    <filter
       height="6.4424276"
       y="-2.7212138"
       width="1.2654843"
       x="-0.13274215"
       id="filter3859"
       inkscape:collect="always"
       color-interpolation-filters="sRGB">
      <feGaussianBlur
         id="feGaussianBlur3861"
         stdDeviation="13.744206"
         inkscape:collect="always" />
    </filter>
    <linearGradient
       inkscape:collect="always"
       xlink:href="#linearGradient5723-5-7-4-0-1-9-5-0-7"
       id="linearGradient3561"
       gradientUnits="userSpaceOnUse"
       gradientTransform="translate(1455.7174,2414.4801)"
       x1="-1182.4948"
       y1="-1109.9047"
       x2="-1084.902"
       y2="-1104.9548" />
    <linearGradient
       inkscape:collect="always"
       id="linearGradient5723-5-7-4-0-1-9-5-0-7">
      <stop
         style="stop-color:#cccccc;stop-opacity:1;"
         offset="0"
         id="stop5725-0-8-6-5-1-4-1-8-7" />
      <stop
         style="stop-color:#cccccc;stop-opacity:0;"
         offset="1"
         id="stop5727-0-8-2-8-7-4-4-2-9" />
    </linearGradient>
    <linearGradient
       inkscape:collect="always"
       xlink:href="#linearGradient4671-4-1-1-4-0-7-1-4-3-4-8"
       id="linearGradient3563"
       gradientUnits="userSpaceOnUse"
       gradientTransform="translate(1455.7174,2414.4801)"
       x1="-1212.9004"
       y1="-1161.2823"
       x2="-1199.0676"
       y2="-1155.6255" />
    <linearGradient
       id="linearGradient4671-4-1-1-4-0-7-1-4-3-4-8">
      <stop
         style="stop-color:#ffd43b;stop-opacity:1;"
         offset="0"
         id="stop4673-5-7-7-5-0-5-0-39-0-8-9" />
      <stop
         style="stop-color:#ffe873;stop-opacity:1"
         offset="1"
         id="stop4675-8-7-3-6-1-7-0-7-5-2-7" />
    </linearGradient>
    <linearGradient
       inkscape:collect="always"
       xlink:href="#linearGradient5398-2-9-8-1-9-4-2-5"
       id="linearGradient3565"
       gradientUnits="userSpaceOnUse"
       gradientTransform="translate(-504.58369,285.2225)"
       x1="-1521.705"
       y1="-650.88257"
       x2="-1402.951"
       y2="-577.88257" />
    <linearGradient
       id="linearGradient5398-2-9-8-1-9-4-2-5">
      <stop
         style="stop-color:#3b4145;stop-opacity:1;"
         offset="0"
         id="stop5400-36-9-7-0-7-5-9-9" />
      <stop
         id="stop5406-0-1-6-9-6-0-2-7"
         offset="1"
         style="stop-color:#3f212b;stop-opacity:0.83846152;" />
    </linearGradient>
    <linearGradient
       inkscape:collect="always"
       xlink:href="#linearGradient4689-6-7-9-6-61-0-36-0-2-3-5-7-1"
       id="linearGradient3567"
       gradientUnits="userSpaceOnUse"
       gradientTransform="matrix(0.47218582,0,0,0.47674449,344.02483,848.73815)"
       x1="26.648937"
       y1="20.603781"
       x2="135.66525"
       y2="114.39767" />
    <linearGradient
       id="linearGradient4689-6-7-9-6-61-0-36-0-2-3-5-7-1">
      <stop
         style="stop-color:#5a9fd4;stop-opacity:1;"
         offset="0"
         id="stop4691-38-3-9-3-89-6-4-8-3-9-6-4-4" />
      <stop
         style="stop-color:#306998;stop-opacity:1;"
         offset="1"
         id="stop4693-4-2-2-6-4-0-4-6-3-9-2-4-1" />
    </linearGradient>
    <linearGradient
       inkscape:collect="always"
       xlink:href="#linearGradient4671-4-9-3-1-7-2-3-3-2-9-5"
       id="linearGradient3569"
       gradientUnits="userSpaceOnUse"
       gradientTransform="matrix(0.81848518,0,0,0.81848518,524.78435,1370.1684)"
       x1="-161.78539"
       y1="-519.71393"
       x2="-186.14603"
       y2="-560.01904" />
    <linearGradient
       id="linearGradient4671-4-9-3-1-7-2-3-3-2-9-5">
      <stop
         style="stop-color:#ffd43b;stop-opacity:1;"
         offset="0"
         id="stop4673-5-8-0-7-3-0-8-7-7-2-1" />
      <stop
         style="stop-color:#ffe873;stop-opacity:1"
         offset="1"
         id="stop4675-8-0-04-1-9-1-3-1-1-0-4" />
    </linearGradient>
  </defs>
  <sodipodi:namedview
     id="base"
     pagecolor="#ffffff"
     bordercolor="#666666"
     borderopacity="1.0"
     inkscape:pageopacity="0.0"
     inkscape:pageshadow="2"
     inkscape:zoom="0.98994949"
     inkscape:cx="521.66005"
     inkscape:cy="775.0571"
     inkscape:document-units="px"
     inkscape:current-layer="layer1"
     showgrid="false"
     inkscape:window-width="1366"
     inkscape:window-height="717"
     inkscape:window-x="0"
     inkscape:window-y="25"
     inkscape:window-maximized="1" />
  <metadata
     id="metadata3899">
    <rdf:RDF>
      <cc:Work
         rdf:about="">
        <dc:format>image/svg+xml</dc:format>
        <dc:type
           rdf:resource="http://purl.org/dc/dcmitype/StillImage" />
        <dc:title></dc:title>
      </cc:Work>
    </rdf:RDF>
  </metadata>
  <g
     inkscape:label="Capa 1"
     inkscape:groupmode="layer"
     id="layer1">
    <g
       id="g3549"
       transform="matrix(2.2146735,0,0,2.2146735,-726.4937,-1806.0766)">
      <g
         id="g6245-72-6-1-3"
         transform="matrix(0.43847517,0.14797551,-0.14797551,0.43847517,432.51005,256.15909)">
        <path
           style="fill:url(#linearGradient3561);fill-opacity:1;stroke:none"
           d="m 331.9245,1349.7598 c -22.5753,-37.0099 -42.2703,-75.2907 -80.084,-105.5772 l -9.0235,4.2657 c 27.3278,17.9617 53.8103,57.5047 80.084,102.3779 z"
           id="path5703-2-8-9-4-6-46-1-1-2"
           inkscape:connector-curvature="0"
           sodipodi:nodetypes="ccccc" />
        <path
           style="fill:url(#linearGradient3563);fill-opacity:1;stroke:none"
           d="m 267.9635,1258.5058 c -4.3656,-4.2057 -11.1865,-10.3694 -16.123,-14.3232 l -9.0235,4.2657 c 4.8412,3.182 12.0484,9.3034 16.84,13.7493 0.5012,0.294 8.3065,-3.6918 8.3065,-3.6918 z"
           id="path5703-3-5-1-4-2-7-0-3-8-0"
           inkscape:connector-curvature="0"
           sodipodi:nodetypes="ccccc" />
      </g>
      <g
         transform="matrix(0.46277125,0,0,0.46277125,1305.5646,1077.0152)"
         id="g6045-3-9-5-4-2-1-3">
        <g
           id="g6041-8-0-6-9-4-8-7" />
        <path
           style="fill:url(#linearGradient3565);fill-opacity:1;stroke:none"
           d="m -1948.0541,-445.14282 c 17.4365,82.2879 -3.2528,134.07492 -25.0631,184.96553 l -65.164,0 c 16.8637,-61.65521 14.8775,-123.31033 -3.0074,-184.96553 z"
           id="path3189-7-5-2-5-2-7-9-0-9-9-2-95-3-4-2"
           inkscape:connector-curvature="0"
           sodipodi:nodetypes="ccccc" />
      </g>
      <path
         sodipodi:nodetypes="scsccccsccscssssscssssss"
         id="path1948-4-4-4-6-3-6-2-5-7-4-6-5"
         d="m 404.12868,857.13884 c -3.84739,0.0176 -7.52165,0.34606 -10.75457,0.91809 -9.52374,1.68259 -11.25293,5.20428 -11.25293,11.69885 l 0,8.57742 22.50586,0 0,4.28193 -22.50586,0 -13.14303,0 c -6.54081,0 -12.2682,3.93148 -14.05968,11.41037 -2.06632,8.57256 -2.15805,13.92206 0,22.87316 1.5998,6.66289 5.42034,11.41037 11.96115,11.41037 l 1.19016,0 0,-10.2825 c 0,-17.45485 9.28245,-13.98046 25.30433,-13.98064 l 22.47967,-2.4e-4 c 6.2575,-4e-5 11.25297,-5.15226 11.25297,-11.4366 l 0,-22.85327 c 0,-6.09918 -5.14541,-10.68089 -11.25297,-11.69885 -3.86618,-0.64358 -7.87767,-0.93596 -11.7251,-0.91809 z m -12.17098,6.89871 c 2.32464,0 4.22307,1.92939 4.22307,4.30178 0,2.36393 -1.89843,4.27559 -4.22307,4.27559 -2.3331,0 -4.22315,-1.91166 -4.22315,-4.27559 0,-2.37239 1.89005,-4.30178 4.22315,-4.30178 z"
         style="fill:url(#linearGradient3567);fill-opacity:1;stroke:none"
         inkscape:connector-curvature="0" />
      <path
         sodipodi:nodetypes="sssss"
         inkscape:connector-curvature="0"
         id="rect5681-0-0-7-6-0-1-4-4-2-1"
         d="m 389.23878,935.28313 c -2.3331,0 -4.22278,1.93716 -4.22278,4.3096 0,2.36388 1.88968,4.26615 4.22278,4.26615 2.32464,0 4.22279,-1.90227 4.22279,-4.26615 0,-2.37239 -1.89815,-4.3096 -4.22279,-4.3096 z"
         style="color:#000000;fill:#ffffff;fill-opacity:1;fill-rule:nonzero;stroke:none;stroke-width:1.5;marker:none;visibility:visible;display:inline;overflow:visible;enable-background:accumulate" />
      <path
         sodipodi:nodetypes="scsccccsccccssssscssssss"
         id="path1948-4-4-6-1-4-5-3-4-9-38-0-6-2"
         d="m 379.92968,946.38529 c 2.66621,-0.0125 5.21233,-0.23981 7.4527,-0.63622 6.59986,-1.16595 7.79811,-3.60642 7.79811,-8.1071 l 0,-5.94393 -15.59613,0 0,-1.9814 15.59613,0 10.3906,0 c 4.53266,0 8.50162,-2.72434 9.7431,-7.90705 1.4319,-5.94069 1.49544,-9.64776 0,-15.85075 -0.17419,-0.72548 -0.38642,-1.26063 -0.63793,-1.91295 0,0 -8.43475,0.01 -8.47566,0 l 0,1.13142 c 0,12.09592 -7.71541,9.68849 -18.81822,9.68849 l -15.57799,0 c -4.33631,0 -7.79802,3.57042 -7.79802,7.92533 l 0,14.85084 c 0,4.22667 3.56565,7.4017 7.79802,8.1071 2.67921,0.44597 5.45912,0.64862 8.12529,0.63622 z m 8.43433,-4.78066 c -1.61109,0 -2.92661,-1.33704 -2.92661,-2.98108 0,-1.63816 1.31552,-2.96289 2.92661,-2.96289 1.61669,0 2.92647,1.32473 2.92647,2.96289 0,1.64404 -1.30978,2.98108 -2.92647,2.98108 z"
         style="fill:url(#linearGradient3569);fill-opacity:1;stroke:none"
         inkscape:connector-curvature="0" />
      <path
         sodipodi:nodetypes="sssss"
         inkscape:connector-curvature="0"
         id="rect5681-8-3-9-6-9-2-9-4-2"
         d="m 391.9547,864.04755 c -2.33311,0 -4.22279,1.93716 -4.22279,4.3096 0,2.36388 1.88968,4.26615 4.22279,4.26615 2.32464,0 4.22278,-1.90227 4.22278,-4.26615 0,-2.3724 -1.89814,-4.3096 -4.22278,-4.3096 z"
         style="color:#000000;fill:#ffffff;fill-opacity:1;fill-rule:nonzero;stroke:none;stroke-width:1.5;marker:none;visibility:visible;display:inline;overflow:visible;enable-background:accumulate" />
    </g>
    <path
       sodipodi:type="arc"
       style="fill:none;stroke:none"
       id="path3081"
       sodipodi:cx="-842.46722"
       sodipodi:cy="26.047203"
       sodipodi:rx="177.78685"
       sodipodi:ry="177.78685"
       d="m -664.68037,26.047203 a 177.78685,177.78685 0 1 1 -355.57373,0 177.78685,177.78685 0 1 1 355.57373,0 z"
       transform="matrix(0.51744849,0.01841141,-0.01835572,0.51595195,666.31676,192.73584)" />
    <g
       id="text3035"
       style="font-size:306.0506897px;font-style:normal;font-variant:normal;font-weight:normal;font-stretch:normal;text-align:start;line-height:117.99999475%;letter-spacing:0px;word-spacing:0px;writing-mode:lr-tb;text-anchor:start;fill:#2d2d2d;fill-opacity:1;stroke:none;font-family:Beta;-inkscape-font-specification:Beta"
       transform="matrix(-0.41187687,-0.31294452,0.31376315,-0.41062285,829.81554,128.60336)">
      <path
         inkscape:connector-curvature="0"
         id="path3068"
         style="font-size:56px;font-weight:bold;line-height:117.99999475%;fill:#2d2d2d;font-family:Arial;-inkscape-font-specification:Arial Bold"
         d="m 516.47622,-408.80052 -1.43597,7.78073 c -2.67144,-0.27342 -4.80149,0.11106 -6.39017,1.15345 -1.59371,1.05988 -2.72992,2.77258 -3.40864,5.13809 -0.71894,2.50565 -0.73373,4.5401 -0.0444,6.10338 0.70185,1.58577 1.76241,2.58228 3.18171,2.98954 0.91115,0.2614 1.76005,0.21102 2.54671,-0.15115 0.79914,-0.33967 1.62631,-1.10746 2.4815,-2.30338 0.57683,-0.82068 1.7333,-2.73617 3.46942,-5.74649 2.23035,-3.87366 4.3403,-6.43537 6.32987,-7.68511 2.79888,-1.75717 5.72275,-2.19836 8.77164,-1.32356 1.96245,0.56308 3.63515,1.6404 5.01809,3.23198 1.39538,1.6141 2.24076,3.59193 2.53615,5.93349 0.29029,2.35904 0.0106,5.0192 -0.83899,7.98047 -1.38764,4.83608 -3.49094,8.16776 -6.30992,9.99505 -2.82406,1.84473 -6.02341,2.32066 -9.59806,1.4278 l 1.89054,-7.87788 c 2.07551,0.23515 3.70093,-0.076 4.87628,-0.93354 1.18779,-0.83503 2.09592,-2.34766 2.72438,-4.5379 0.64853,-2.26039 0.69197,-4.16335 0.13034,-5.70891 -0.35949,-0.9945 -1.0386,-1.63502 -2.03734,-1.92157 -0.91118,-0.26145 -1.80152,-0.0997 -2.67103,0.48529 -1.1051,0.74492 -2.64743,2.88159 -4.62699,6.40999 -1.97959,3.52836 -3.71016,6.05668 -5.1917,7.58498 -1.46907,1.55079 -3.1817,2.59553 -5.1379,3.13424 -1.94371,0.56118 -4.13335,0.49237 -6.56893,-0.20642 -2.20779,-0.6335 -4.09944,-1.84003 -5.67496,-3.61957 -1.5755,-1.77961 -2.51459,-3.92656 -2.81727,-6.44086 -0.28515,-2.50932 0.0524,-5.43733 1.01266,-8.78405 1.39766,-4.87117 3.59246,-8.29039 6.58439,-10.25766 3.00946,-1.96226 6.74232,-2.57906 11.19858,-1.85043" />
      <path
         inkscape:connector-curvature="0"
         id="path3070"
         style="font-size:56px;font-weight:bold;line-height:117.99999475%;fill:#2d2d2d;font-family:Arial;-inkscape-font-specification:Arial Bold"
         d="m 475.00041,-342.87447 4.21839,-7.72838 9.66926,1.29035 7.67694,-14.06468 -6.40722,-7.26663 4.11358,-7.53637 27.70527,32.91011 -4.10048,7.51236 -42.87574,-5.11676 m 21.06049,-5.4823 15.70295,2.27848 -10.46272,-11.87894 -5.24023,9.60046" />
      <path
         inkscape:connector-curvature="0"
         id="path3072"
         style="font-size:56px;font-weight:bold;line-height:117.99999475%;fill:#2d2d2d;font-family:Arial;-inkscape-font-specification:Arial Bold"
         d="m 502.007,-312.82061 -10.64697,11.97466 c -2.10761,2.37037 -3.77836,4.04371 -5.01227,5.02003 -1.23241,1.00195 -2.56772,1.68074 -4.00591,2.03635 -1.45032,0.36914 -2.9725,0.39392 -4.56654,0.0743 -1.58042,-0.30757 -3.01772,-1.03668 -4.31191,-2.18733 -1.40317,-1.24764 -2.3514,-2.77372 -2.84468,-4.57825 -0.50538,-1.791 -0.47563,-3.59399 0.0893,-5.40898 -2.15438,1.35306 -4.3079,1.95075 -6.46059,1.79306 -2.15266,-0.15776 -4.09406,-1.00577 -5.8242,-2.54403 -1.36229,-1.2113 -2.40589,-2.71242 -3.1308,-4.50336 -0.72337,-1.76528 -0.98276,-3.54484 -0.77818,-5.3387 0.20614,-1.76817 0.93529,-3.53474 2.18746,-5.2997 0.78736,-1.10502 2.88134,-3.5973 6.28195,-7.47683 l 9.06627,-10.19686 29.9571,26.6356 m -10.36403,1.61543 -6.92732,-6.15926 -3.52477,3.96431 c -2.09548,2.35676 -3.36353,3.85151 -3.80414,4.48428 -0.79795,1.14433 -1.16445,2.26983 -1.0995,3.3765 0.0665,1.13233 0.58331,2.12851 1.55055,2.98854 0.92636,0.82362 1.90577,1.23097 2.93822,1.22206 1.03395,0.0168 2.0604,-0.4244 3.07934,-1.32345 0.60106,-0.53889 2.16736,-2.23193 4.69891,-5.07911 l 3.08871,-3.47387 m -11.91336,-10.59247 -8.01036,-7.1222 -4.97827,5.59907 c -1.93801,2.17967 -3.10613,3.61691 -3.50438,4.31174 -0.63594,1.04445 -0.88889,2.12455 -0.75886,3.2403 0.13156,1.14143 0.72864,2.18455 1.79123,3.12936 0.89913,0.7994 1.85582,1.25974 2.87007,1.38101 1.01427,0.12121 2.03388,-0.10649 3.05883,-0.6831 1.01284,-0.56305 2.74263,-2.22049 5.18937,-4.97231 l 4.34237,-4.88387" />
      <path
         inkscape:connector-curvature="0"
         id="path3074"
         style="font-size:56px;font-weight:bold;line-height:117.99999475%;fill:#2d2d2d;font-family:Arial;-inkscape-font-specification:Arial Bold"
         d="m 415.15079,-281.62756 -3.76924,-6.06016 22.87071,-14.22493 c 1.17723,2.44498 1.7821,5.07422 1.81461,7.88771 0.0421,2.82896 -0.70912,7.07449 -2.25377,12.73662 -1.23697,4.56908 -1.88499,7.54823 -1.94405,8.93744 -0.0602,1.90508 0.31889,3.51551 1.13724,4.83128 0.90501,1.45502 1.99292,2.32403 3.26375,2.60702 1.26498,0.30802 2.5863,0.0336 3.96397,-0.82321 1.36217,-0.84727 2.19059,-1.93141 2.48525,-3.25242 0.29465,-1.32108 -0.0882,-2.97209 -1.14857,-4.95304 l 6.90568,-3.3935 c 1.84663,3.83186 2.23452,7.16495 1.16366,9.99925 -1.07089,2.83423 -3.13878,5.2045 -6.20367,7.11083 -3.35903,2.08917 -6.56147,2.82515 -9.60735,2.20795 -3.04587,-0.61729 -5.40642,-2.27262 -7.08165,-4.96598 -0.95313,-1.53249 -1.58432,-3.16858 -1.89357,-4.90828 -0.31508,-1.71467 -0.34842,-3.70114 -0.10004,-5.95941 0.16366,-1.4972 0.68756,-3.83026 1.57172,-6.9992 0.88418,-3.16899 1.41234,-5.23635 1.58448,-6.2021 0.15668,-0.95616 0.22236,-1.83425 0.19705,-2.63426 l -12.95621,8.05839" />
      <path
         inkscape:connector-curvature="0"
         id="path3076"
         style="font-size:56px;font-weight:bold;line-height:117.99999475%;fill:#2d2d2d;font-family:Arial;-inkscape-font-specification:Arial Bold"
         d="m 408.60268,-262.73245 c 2.15629,0.0406 3.92837,0.56868 5.31625,1.58423 1.37771,1.03919 2.39154,2.37122 3.04148,3.99608 1.11028,2.77573 1.06288,5.45501 -0.1422,8.03786 -1.22202,2.58953 -3.61866,4.59856 -7.18991,6.02709 -3.5374,1.41491 -6.64151,1.60616 -9.31233,0.57375 -2.68773,-1.02573 -4.58675,-2.92645 -5.69706,-5.70217 -0.69053,-1.72643 -0.85809,-3.44604 -0.50267,-5.15885 0.36222,-1.69595 1.21357,-3.22431 2.55405,-4.58507 -2.39662,-0.003 -4.44627,-0.58735 -6.14898,-1.75179 -1.71959,-1.15773 -2.99576,-2.77749 -3.8285,-4.85928 -1.3743,-3.43587 -1.39122,-6.66861 -0.0507,-9.69823 1.3236,-3.02288 3.80486,-5.26209 7.44379,-6.71766 3.38509,-1.35402 6.55859,-1.59266 9.52052,-0.71591 3.49678,1.03583 5.97633,3.38169 7.43867,7.03758 0.80564,2.01411 1.04428,4.05869 0.71593,6.13375 -0.32159,2.09196 -1.37435,4.02483 -3.15829,5.79862 m 1.4014,7.77382 c -0.56869,-1.42176 -1.40988,-2.37127 -2.52356,-2.84854 -1.13061,-0.47056 -2.36447,-0.43841 -3.70158,0.0965 -1.35402,0.54158 -2.27815,1.37261 -2.77238,2.4931 -0.48745,1.13735 -0.44683,2.4169 0.12185,3.83867 0.53485,1.33707 1.36757,2.24088 2.49818,2.71145 1.12046,0.49418 2.34077,0.47726 3.66095,-0.0508 1.37096,-0.54841 2.30016,-1.39129 2.78761,-2.52864 0.48746,-1.13741 0.46376,-2.37466 -0.0711,-3.71173 m -5.71734,-16.20774 c -0.78533,-1.96335 -1.89732,-3.29538 -3.33598,-3.99608 -1.45557,-0.69396 -2.93653,-0.73966 -4.4429,-0.13711 -1.4725,0.58899 -2.48125,1.60112 -3.02627,3.0364 -0.53821,1.45218 -0.40789,3.17687 0.39096,5.17408 0.69734,1.7433 1.74671,2.9433 3.14811,3.60003 1.4082,0.67361 2.86547,0.70916 4.37182,0.10665 1.74332,-0.69735 2.80623,-1.81949 3.18875,-3.36645 0.36559,-1.54022 0.26743,-3.01273 -0.29449,-4.41752" />
      <path
         inkscape:connector-curvature="0"
         id="path3078"
         style="font-size:56px;font-weight:bold;line-height:117.99999475%;fill:#2d2d2d;font-family:Arial;-inkscape-font-specification:Arial Bold"
         d="m 360.89101,-269.59975 2.93406,39.97842 -12.08078,0.88662 -9.25534,-26.73803 -5.17071,27.79678 -12.10806,0.88862 -2.93407,-39.97841 7.49936,-0.55039 2.30963,31.47005 5.62606,-32.05246 7.77207,-0.5704 10.21804,30.88964 -2.30963,-31.47005 7.49937,-0.55039" />
      <path
         inkscape:connector-curvature="0"
         id="path3080"
         style="font-size:56px;font-weight:bold;line-height:117.99999475%;fill:#2d2d2d;font-family:Arial;-inkscape-font-specification:Arial Bold"
         d="m 278.42783,-273.66053 8.67746,1.49142 1.90705,9.56675 15.79189,2.71419 4.80315,-8.41345 8.46186,1.45436 -22.17777,36.86195 -8.43491,-1.44973 -9.02873,-42.22549 m 12.0006,18.15449 2.92396,15.59565 7.85548,-13.74296 -10.77944,-1.85269" />
      <path
         inkscape:connector-curvature="0"
         id="path3082"
         style="font-size:56px;font-weight:bold;line-height:117.99999475%;fill:#2d2d2d;font-family:Arial;-inkscape-font-specification:Arial Bold"
         d="m 274.23584,-275.3421 -15.57951,36.93455 -15.69593,-6.62075 c -3.94703,-1.66496 -6.66906,-3.20884 -8.1661,-4.63165 -1.52082,-1.41315 -2.46095,-3.19462 -2.82038,-5.34443 -0.35933,-2.14985 -0.0785,-4.31651 0.84247,-6.49998 1.16904,-2.77136 2.95072,-4.72041 5.34506,-5.84715 2.38733,-1.10996 5.30098,-1.21639 8.74096,-0.31931 -1.21564,-1.62073 -2.10681,-3.21338 -2.67352,-4.77798 -0.58343,-1.57167 -1.15961,-4.16907 -1.72852,-7.79219 l -1.47036,-9.10779 8.91871,3.76204 2.00146,10.31114 c 0.70327,3.6798 1.25175,6.03799 1.64542,7.07458 0.38665,1.05338 0.91798,1.88093 1.59402,2.48266 0.66899,0.61852 1.86008,1.2891 3.57326,2.01176 l 1.51164,0.63763 6.50386,-15.41879 7.45746,3.14566 m -16.44809,18.16855 -5.5175,-2.32736 c -3.57754,-1.50908 -5.87518,-2.30019 -6.89293,-2.37335 -1.01768,-0.0732 -1.93435,0.15348 -2.74999,0.67998 -0.81558,0.52647 -1.45719,1.34398 -1.92482,2.45253 -0.52424,1.2429 -0.60987,2.38396 -0.25688,3.42319 0.32919,1.04891 1.05591,1.9292 2.18017,2.64088 0.56927,0.33901 2.36553,1.14616 5.38879,2.42145 l 5.81984,2.45489 3.95332,-9.37221" />
      <path
         inkscape:connector-curvature="0"
         id="path3084"
         style="font-size:56px;font-weight:bold;line-height:117.99999475%;fill:#2d2d2d;font-family:Arial;-inkscape-font-specification:Arial Bold"
         d="m 201.20993,-310.67693 4.53253,-5.51262 20.80434,17.10549 c -1.93873,1.89872 -4.23543,3.31431 -6.89011,4.24679 -2.66623,0.94655 -6.9286,1.59555 -12.78711,1.947 -4.72451,0.2926 -7.75419,0.63354 -9.08906,1.02281 -1.82388,0.55353 -3.22787,1.42874 -4.21198,2.62561 -1.08823,1.32358 -1.56274,2.63262 -1.42352,3.92711 0.11363,1.29697 0.79702,2.46065 2.05017,3.49105 1.23915,1.01879 2.5316,1.45606 3.87736,1.31182 1.34583,-0.14428 2.78706,-1.03607 4.32369,-2.67537 l 5.42767,5.45387 c -3.03793,2.97728 -6.07089,4.41291 -9.09889,4.30689 -3.02794,-0.10608 -5.93592,-1.30525 -8.72395,-3.59754 -3.05548,-2.5123 -4.77898,-5.30995 -5.17049,-8.39298 -0.39143,-3.08304 0.42006,-5.84959 2.43447,-8.29963 1.1462,-1.394 2.49371,-2.51624 4.04254,-3.36673 1.52324,-0.84798 3.39424,-1.5162 5.613,-2.00467 1.47068,-0.3248 3.84859,-0.57624 7.13373,-0.75431 3.2852,-0.17807 5.41279,-0.34033 6.38277,-0.48678 0.95594,-0.15802 1.80875,-0.37722 2.55845,-0.65759 l -11.78561,-9.69022" />
      <path
         inkscape:connector-curvature="0"
         id="path3086"
         style="font-size:56px;font-weight:bold;line-height:117.99999475%;fill:#2d2d2d;font-family:Arial;-inkscape-font-specification:Arial Bold"
         d="m 162.92414,-303.53726 c -2.52592,-2.94886 -3.44827,-6.15523 -2.76705,-9.61912 0.79619,-4.11436 4.08082,-8.64414 9.85388,-13.58935 5.75929,-4.93332 10.7526,-7.48237 14.97995,-7.64713 3.48789,-0.13135 6.49481,1.27739 9.02076,4.22622 2.53784,2.96271 3.44827,6.3233 2.73132,10.08178 -0.73079,3.77035 -4.01734,8.15776 -9.85968,13.16227 -5.73155,4.90961 -10.71101,7.44679 -14.93841,7.61156 -3.48785,0.13135 -6.49476,-1.27739 -9.02077,-4.22623 m 4.83861,-4.14472 c 0.60484,0.70605 1.37286,1.1403 2.30405,1.30274 0.91741,0.17427 2.08801,-0.0844 3.51181,-0.77594 1.85297,-0.89115 4.56537,-2.86653 8.13719,-5.92615 3.57187,-3.05962 5.87508,-5.34457 6.90963,-6.85484 1.02074,-1.49842 1.52136,-2.70734 1.50187,-3.62676 -0.0313,-0.93325 -0.3494,-1.75292 -0.95422,-2.45899 -0.6048,-0.70605 -1.36589,-1.14623 -2.28329,-1.32052 -0.9312,-0.16242 -2.10873,0.10215 -3.53257,0.79372 -1.83908,0.8793 -4.54456,2.84875 -8.11643,5.90836 -3.57182,3.05962 -5.8681,5.33864 -6.88886,6.83706 -1.03454,1.51027 -1.53615,2.73204 -1.50485,3.66531 0.006,0.93127 0.3109,1.74994 0.91567,2.45601" />
      <path
         inkscape:connector-curvature="0"
         id="path3088"
         style="font-size:56px;font-weight:bold;line-height:117.99999475%;fill:#2d2d2d;font-family:Arial;-inkscape-font-specification:Arial Bold"
         d="m 171.95445,-360.76428 3.90707,6.61607 -24.93386,14.72454 c 3.68782,1.08245 7.0419,2.94416 10.06225,5.58514 l -6.00391,3.54557 c -1.58468,-1.39292 -3.75974,-2.63833 -6.52518,-3.73622 -2.78107,-1.08864 -5.44575,-1.38861 -7.99405,-0.89993 l -3.17016,-5.3682 34.65784,-20.46697" />
      <path
         inkscape:connector-curvature="0"
         id="path3090"
         style="font-size:56px;font-weight:bold;line-height:117.99999475%;fill:#2d2d2d;font-family:Arial;-inkscape-font-specification:Arial Bold"
         d="m 156.74403,-367.4239 -3.42112,-6.89513 c 1.54584,-0.81072 2.60881,-1.89842 3.1889,-3.26309 0.56304,-1.35829 0.59905,-2.69491 0.10802,-4.00989 -0.56114,-1.5028 -1.64246,-2.54869 -3.24396,-3.13767 -1.61854,-0.58258 -3.6574,-0.41475 -6.11657,0.5035 -2.30543,0.86088 -3.83576,2.0258 -4.59098,3.49476 -0.77863,1.45828 -0.85869,3.01566 -0.24016,4.67217 0.77162,2.06637 2.37714,3.57811 4.81658,4.53522 l 1.33553,6.15614 -20.92251,3.60953 -7.10696,-19.0328 6.73705,-2.51565 5.06957,13.57656 6.79929,-1.25463 c -1.40203,-1.30556 -2.41553,-2.79514 -3.04048,-4.46873 -1.19243,-3.19348 -1.04189,-6.33387 0.45162,-9.42119 1.49358,-3.0873 4.09325,-5.32284 7.79903,-6.70663 3.09103,-1.15417 6.18382,-1.28746 9.27836,-0.39986 4.22492,1.20499 7.14722,3.97631 8.76692,8.31396 1.2945,3.46673 1.41914,6.64058 0.37393,9.52155 -1.0452,2.88099 -3.05922,5.12161 -6.04206,6.72188" />
    </g>
    <path
       sodipodi:type="arc"
       style="fill:#b3b3b3;fill-opacity:1;fill-rule:evenodd;stroke:none;filter:url(#filter3859)"
       id="path3845"
       sodipodi:cx="-55.558392"
       sodipodi:cy="-234.57216"
       sodipodi:rx="124.24876"
       sodipodi:ry="6.0609155"
       d="m 68.690365,-234.57216 a 124.24876,6.0609155 0 1 1 -248.497515,0 124.24876,6.0609155 0 1 1 248.497515,0 z"
       transform="matrix(0.73475066,0,0,0.53511499,448.61423,428.02543)"
       inkscape:export-filename="/home/ruben/Imágenes/logos/pydaylogo.png"
       inkscape:export-xdpi="90"
       inkscape:export-ydpi="90" />
    <g
       transform="matrix(1.0014492,0,0,0.99855289,14.414157,-23.60744)"
       style="font-size:158.23634338px;font-style:normal;font-variant:normal;font-weight:normal;font-stretch:normal;text-align:start;line-height:125%;letter-spacing:0px;word-spacing:0px;writing-mode:lr-tb;text-anchor:start;fill:#666666;fill-opacity:1;stroke:none;font-family:Beta;-inkscape-font-specification:Beta"
       id="text3897">
      <path
         inkscape:connector-curvature="0"
         d="m 255.77088,271.32742 c -3.48124,0.10549 -6.8042,-0.31647 -9.96889,-1.26589 -3.05927,-0.84392 -6.01301,-2.05707 -8.86124,-3.63943 l 0,39.87556 -14.55774,-5.2218 0,-91.77708 c 0.21097,-0.21092 0.94941,-1.0021 2.21531,-2.37355 1.26588,-1.37131 3.21746,-2.84819 5.85474,-4.43061 2.74275,-1.5823 6.1712,-3.00642 10.28537,-4.27239 4.2196,-1.26581 9.28316,-1.9515 15.19068,-2.05707 5.06352,-0.10542 9.38864,0.94949 12.97538,3.16473 3.58664,2.10988 6.54038,5.01088 8.86124,8.703 2.32073,3.58675 4.06133,7.75363 5.2218,12.50067 1.16033,4.64164 1.74053,9.49422 1.7406,14.55774 -7e-5,4.43065 -0.58027,8.80852 -1.7406,13.13362 -1.05498,4.21965 -2.79558,8.01732 -5.2218,11.39302 -2.32086,3.27022 -5.32735,6.01298 -9.01947,8.22829 -3.58674,2.10981 -7.91187,3.21747 -12.97538,3.32296 l 0,0.15823 m -1.7406,-64.08571 c -2.00437,-0.10543 -3.95595,0.0528 -5.85475,0.4747 -1.79337,0.31654 -3.48123,0.7385 -5.06356,1.2659 -1.4769,0.52751 -2.74279,1.10771 -3.79767,1.7406 -1.05494,0.52751 -1.84612,1.00222 -2.37355,1.42412 l 0,42.88205 c 2.0043,1.16041 4.48334,2.37356 7.43711,3.63944 2.95371,1.16041 5.9602,1.63512 9.01947,1.42412 3.27018,-0.21097 5.90745,-1.10764 7.91182,-2.69001 2.00428,-1.58235 3.53389,-3.53393 4.58885,-5.85475 1.05486,-2.42627 1.74055,-5.11628 2.05708,-8.07005 0.31641,-2.95372 0.47465,-5.90746 0.47471,-8.86124 -6e-5,-2.9537 -0.1583,-6.01294 -0.47471,-9.1777 -0.31653,-3.16468 -1.00222,-6.06568 -2.05708,-8.703 -1.05496,-2.63722 -2.53183,-4.79978 -4.43061,-6.48769 -1.89889,-1.79329 -4.37792,-2.7427 -7.43711,-2.84826 l 0,-0.15823"
         style="font-weight:bold;fill:#666666;font-family:Flux;-inkscape-font-specification:Flux Bold"
         id="path3040" />
      <path
         inkscape:connector-curvature="0"
         d="m 357.83332,288.73342 c -1.58243,2.95373 -3.74499,5.43276 -6.48769,7.43711 -2.74282,2.10979 -5.80205,3.79764 -9.17771,5.06356 -3.27026,1.37135 -6.69871,2.37351 -10.28536,3.00649 -3.58673,0.63291 -7.01518,1.00213 -10.28536,1.10766 l -2.53178,-10.28536 c 2.10978,-0.3165 4.43058,-0.68572 6.96239,-1.10766 2.63724,-0.31649 5.22177,-0.84395 7.75359,-1.58236 2.53173,-0.73846 4.85253,-1.74062 6.96239,-3.00649 2.10977,-1.26591 3.74488,-2.95376 4.90533,-5.06356 1.05486,-2.00434 1.63506,-4.74711 1.7406,-8.22829 0.21093,-3.37572 0.31642,-6.3822 0.31647,-9.01948 l 0.15824,-0.31647 c -3.69223,1.47687 -7.38441,2.53178 -11.07654,3.16473 -3.58674,0.73843 -7.48989,1.10765 -11.70949,1.10765 -2.63731,0 -5.38007,-0.47471 -8.22829,-1.42412 -2.74279,-0.94942 -5.27457,-2.3208 -7.59535,-4.11415 -2.32081,-1.89883 -4.21965,-4.16688 -5.69651,-6.80416 -1.37139,-2.74275 -2.05708,-5.85473 -2.05707,-9.33595 l 0,-48.89503 14.87422,-5.06356 0,50.31916 c -3e-5,4.74711 1.4241,8.33379 4.27238,10.76007 2.95371,2.32081 6.75138,3.42846 11.39302,3.32296 2.63723,-0.10548 5.32724,-0.73842 8.07005,-1.89883 2.74271,-1.16039 5.06351,-2.32079 6.9624,-3.4812 l 0,-56.64861 14.87421,0 0,63.92748 c -6e-5,2.00433 -0.0528,4.21964 -0.15823,6.64592 -0.10556,2.42629 -0.31654,4.85258 -0.63295,7.27888 -0.21105,2.53177 -0.58027,4.95806 -1.10765,7.27887 -0.52752,2.32078 -1.26596,4.32511 -2.21531,6.01298 l 0,-0.15824"
         style="font-weight:bold;fill:#666666;font-family:Flux;-inkscape-font-specification:Flux Bold"
         id="path3042" />
      <path
         inkscape:connector-curvature="0"
         d="m 403.93943,270.53624 c -5.06359,0 -9.44146,-1.1604 -13.13361,-3.4812 -3.58671,-2.32079 -6.54045,-5.27453 -8.86124,-8.86123 -2.21532,-3.69217 -3.90317,-7.70082 -5.06356,-12.02596 -1.05492,-4.43059 -1.58237,-8.70297 -1.58236,-12.81715 -10e-6,-4.21959 0.58019,-8.54472 1.7406,-12.97538 1.26588,-4.53605 3.11197,-8.59745 5.53827,-12.1842 2.42627,-3.69211 5.48551,-6.6986 9.17771,-9.01947 3.79764,-2.42622 8.22825,-3.63936 13.29185,-3.63943 3.37567,7e-5 6.59314,0.36929 9.65242,1.10765 3.05918,0.73851 6.06567,1.74067 9.01947,3.00649 l 0,-38.7679 14.3995,-4.90533 0,101.90421 c -5.16911,4.00866 -10.54914,7.17338 -16.1401,9.49418 -5.59107,2.21531 -11.65679,3.32296 -18.19718,3.32296 l 0.15823,-0.15824 m 19.93778,-58.70568 c -2.63732,-1.6878 -5.1691,-3.00643 -7.59534,-3.95591 -2.42634,-0.94935 -5.1691,-1.37132 -8.22829,-1.26589 -3.16476,6e-5 -5.80203,0.89674 -7.91182,2.69002 -2.10984,1.68791 -3.85044,3.90322 -5.2218,6.64592 -1.3714,2.63733 -2.37357,5.59107 -3.00649,8.86124 -0.52747,3.16477 -0.7912,6.17126 -0.79118,9.01947 -2e-5,2.7428 0.26371,5.69654 0.79118,8.86124 0.63292,3.05926 1.58234,5.90751 2.84826,8.54476 1.26586,2.5318 2.90097,4.69436 4.90532,6.48769 2.10979,1.68786 4.64157,2.53179 7.59535,2.53178 3.05919,1e-5 6.06568,-0.58019 9.01947,-1.7406 2.95369,-1.26588 5.48547,-2.58451 7.59534,-3.95591 l 0,-42.72381 0,0"
         style="font-weight:bold;fill:#666666;font-family:Flux;-inkscape-font-specification:Flux Bold"
         id="path3044" />
      <path
         inkscape:connector-curvature="0"
         d="m 475.96663,270.69448 c -3.27024,-0.10549 -6.38222,-0.79118 -9.33594,-2.05707 -2.84827,-1.26589 -5.38005,-2.95374 -7.59535,-5.06357 -2.10982,-2.2153 -3.79768,-4.79982 -5.06356,-7.75358 -1.2659,-2.95373 -1.89884,-6.0657 -1.89884,-9.33594 0.10549,-3.58666 0.79118,-6.80413 2.05708,-9.65242 1.37137,-2.84822 3.21746,-5.2745 5.53827,-7.27887 2.32078,-2.00428 4.95805,-3.5339 7.91182,-4.58885 3.05921,-1.05487 6.32942,-1.58232 9.81065,-1.58237 l 16.77305,0 0,-4.90532 c -5e-5,-3.37566 -1.31868,-6.11842 -3.95591,-8.22829 -2.53182,-2.10976 -5.48556,-3.16467 -8.86123,-3.16473 -3.27025,6e-5 -6.27674,0.42203 -9.01947,1.26589 -2.74279,0.84399 -6.013,2.21537 -9.81066,4.11415 l -4.11414,-9.49419 c 2.42628,-1.26582 4.64158,-2.32073 6.64592,-3.16472 2.1098,-0.94935 4.16687,-1.68779 6.17122,-2.21531 2.10979,-0.52738 4.16686,-0.8966 6.17122,-1.10766 2.10978,-0.31639 4.37784,-0.47463 6.80416,-0.4747 2.95371,7e-5 5.8547,0.47478 8.703,1.42412 2.9537,0.94949 5.53822,2.37362 7.75358,4.27238 2.32075,1.89891 4.16683,4.2197 5.53827,6.9624 1.37133,2.63733 2.05702,5.69657 2.05708,9.17771 l 0.15823,40.19203 c -3.69224,3.69219 -8.28109,6.75142 -13.76656,9.17771 -5.38008,2.42629 -11.60403,3.53394 -18.67189,3.32296 l 0,0.15824 m 4.74709,-36.5526 c -4.00868,4e-5 -7.2789,1.10769 -9.81065,3.32297 -2.42631,2.10985 -3.63946,5.01084 -3.63944,8.703 -2e-5,3.48122 1.26587,6.64594 3.79768,9.49418 2.63724,2.74277 5.9602,4.1669 9.96889,4.27238 2.74272,10e-6 5.2745,-0.52745 7.59534,-1.58237 2.42625,-1.16038 4.16684,-2.21529 5.2218,-3.16472 l 0,-20.8872 -13.13362,-0.15824"
         style="font-weight:bold;fill:#666666;font-family:Flux;-inkscape-font-specification:Flux Bold"
         id="path3046" />
      <path
         inkscape:connector-curvature="0"
         d="m 580.97128,288.73342 c -1.58243,2.95373 -3.74499,5.43276 -6.48769,7.43711 -2.74282,2.10979 -5.80205,3.79764 -9.17771,5.06356 -3.27026,1.37135 -6.69871,2.37351 -10.28536,3.00649 -3.58672,0.63291 -7.01518,1.00213 -10.28536,1.10766 l -2.53178,-10.28536 c 2.10979,-0.3165 4.43058,-0.68572 6.9624,-1.10766 2.63723,-0.31649 5.22176,-0.84395 7.75358,-1.58236 2.53174,-0.73846 4.85253,-1.74062 6.9624,-3.00649 2.10976,-1.26591 3.74487,-2.95376 4.90532,-5.06356 1.05486,-2.00434 1.63506,-4.74711 1.7406,-8.22829 0.21093,-3.37572 0.31642,-6.3822 0.31648,-9.01948 l 0.15823,-0.31647 c -3.69223,1.47687 -7.38441,2.53178 -11.07654,3.16473 -3.58673,0.73843 -7.48989,1.10765 -11.70949,1.10765 -2.6373,0 -5.38006,-0.47471 -8.22829,-1.42412 -2.74279,-0.94942 -5.27456,-2.3208 -7.59535,-4.11415 -2.32081,-1.89883 -4.21964,-4.16688 -5.6965,-6.80416 -1.3714,-2.74275 -2.05709,-5.85473 -2.05708,-9.33595 l 0,-48.89503 14.87422,-5.06356 0,50.31916 c -2e-5,4.74711 1.4241,8.33379 4.27238,10.76007 2.95372,2.32081 6.75138,3.42846 11.39302,3.32296 2.63723,-0.10548 5.32724,-0.73842 8.07005,-1.89883 2.74271,-1.16039 5.06351,-2.32079 6.9624,-3.4812 l 0,-56.64861 14.87422,0 0,63.92748 c -7e-5,2.00433 -0.0528,4.21964 -0.15824,6.64592 -0.10556,2.42629 -0.31654,4.85258 -0.63294,7.27888 -0.21106,2.53177 -0.58027,4.95806 -1.10766,7.27887 -0.52752,2.32078 -1.26596,4.32511 -2.21531,6.01298 l 0,-0.15824"
         style="font-weight:bold;fill:#666666;font-family:Flux;-inkscape-font-specification:Flux Bold"
         id="path3048" />
    </g>
    <path
       style="fill:none;stroke:#7d7d7d;stroke-width:4.19999981;stroke-miterlimit:4;stroke-opacity:1"
       d="m 492.41637,150.08413 c 15.64457,-16.53205 37.82257,-26.8503 62.41751,-26.8503 47.38761,0 85.80286,38.30411 85.80286,85.55468 0,47.25057 -38.41525,85.55468 -85.80286,85.55468 -26.60997,0 -50.39072,-12.0782 -66.12888,-31.03649"
       id="path3823"
       inkscape:connector-curvature="0"
       sodipodi:nodetypes="csssc"
       inkscape:export-filename="/home/ruben/Imágenes/logos/pydaylogo.png"
       inkscape:export-xdpi="90"
       inkscape:export-ydpi="90" />
    <path
       style="fill:none;stroke:#7d7d7d;stroke-width:4.19999981;stroke-miterlimit:4;stroke-opacity:1"
       d="m 462.07506,280.19969 c 18.33614,23.17169 45.34965,39.56344 76.98593,43.8617 64.76724,8.79974 124.38346,-36.41907 133.15655,-100.99895 8.7731,-64.57997 -36.61913,-124.06585 -101.38638,-132.86558 -37.78594,-5.13384 -73.81866,8.11849 -99.02479,32.87503"
       id="path3098"
       inkscape:connector-curvature="0"
       sodipodi:nodetypes="csssc"
       inkscape:export-filename="/home/ruben/Imágenes/logos/pydaylogo.png"
       inkscape:export-xdpi="90"
       inkscape:export-ydpi="90" />
    <g
       transform="matrix(0.88868465,-0.10725481,0.10724768,0.88874374,-1.2004129,-136.87803)"
       style="font-size:306.0506897px;font-style:normal;font-variant:normal;font-weight:normal;font-stretch:normal;text-align:start;line-height:125%;letter-spacing:0px;word-spacing:0px;writing-mode:lr-tb;text-anchor:start;fill:#2d2d2d;fill-opacity:1;stroke:none;font-family:Beta;-inkscape-font-specification:Beta"
       id="text3052">
      <path
         inkscape:connector-curvature="0"
         d="m 482.94497,546.91962 -3.49404,-3.695 2.4323,-5.08222 -6.35871,-6.72443 -5.1342,2.2249 -3.40723,-3.6032 23.01851,-9.35531 3.39638,3.59172 -10.45301,22.64354 m 0.74177,-12.54756 4.05057,-8.22094 -8.39099,3.63088 4.34042,4.59006"
         style="font-size:32.3443985px;font-weight:bold;letter-spacing:4.51000023px;fill:#2d2d2d;font-family:Arial;-inkscape-font-specification:Arial Bold"
         id="path3051" />
      <path
         inkscape:connector-curvature="0"
         d="m 491.83851,544.4397 3.98276,2.24084 c -0.64938,1.40855 -0.83795,2.6444 -0.5657,3.70757 0.28087,1.06919 1.00406,2.01057 2.16959,2.82415 1.23457,0.86179 2.34346,1.25063 3.32667,1.16654 0.99785,-0.0867 1.74085,-0.47972 2.22901,-1.17903 0.31336,-0.44894 0.44471,-0.92222 0.39404,-1.41985 -0.036,-0.50023 -0.30076,-1.0959 -0.79417,-1.78702 -0.34048,-0.46878 -1.1707,-1.45919 -2.49065,-2.97123 -1.69921,-1.94367 -2.70408,-3.57602 -3.0146,-4.89705 -0.43632,-1.85821 -0.13017,-3.53843 0.91845,-5.04067 0.67495,-0.96693 1.57668,-1.67929 2.70517,-2.13708 1.14312,-0.46037 2.38205,-0.55214 3.7168,-0.2753 1.34335,0.28288 2.74455,0.93356 4.20363,1.95202 2.38281,1.66333 3.80964,3.43615 4.28051,5.31847 0.47945,1.88836 0.14073,3.72561 -1.01616,5.51175 l -3.95077,-2.50742 c 0.51694,-1.09007 0.65111,-2.03647 0.40253,-2.83918 -0.23397,-0.80531 -0.89054,-1.58462 -1.9697,-2.33794 -1.11373,-0.77741 -2.14541,-1.1573 -3.09504,-1.13967 -0.61069,0.0103 -1.08778,0.2615 -1.43128,0.7536 -0.31339,0.44895 -0.39163,0.96572 -0.23472,1.55031 0.20021,0.74326 1.07906,1.98591 2.63655,3.72793 1.55745,1.74203 2.61508,3.16083 3.17289,4.25639 0.57243,1.09297 0.82277,2.2243 0.75101,3.39402 -0.0571,1.1671 -0.50454,2.35068 -1.3422,3.55073 -0.75936,1.08781 -1.77265,1.89563 -3.03989,2.42346 -1.26727,0.52782 -2.61615,0.63914 -4.04665,0.33396 -1.4245,-0.31382 -2.96124,-1.04626 -4.61022,-2.19731 -2.4001,-1.67537 -3.85765,-3.51457 -4.37263,-5.5176 -0.50897,-2.01166 -0.14738,-4.16679 1.08477,-6.46539"
         style="font-size:32.3443985px;font-weight:bold;letter-spacing:4.51000023px;fill:#2d2d2d;font-family:Arial;-inkscape-font-specification:Arial Bold"
         id="path3053" />
      <path
         inkscape:connector-curvature="0"
         d="m 519.4864,544.24591 4.29789,1.83893 -4.93281,11.5288 c -0.7828,1.82952 -1.23692,3.03809 -1.36237,3.62572 -0.18885,0.94989 -0.0535,1.83806 0.40596,2.66452 0.4733,0.82092 1.3101,1.48817 2.51042,2.00174 1.21966,0.52186 2.24487,0.66849 3.07563,0.43988 0.83487,-0.23828 1.47055,-0.6935 1.90703,-1.36565 0.43645,-0.67216 1.01502,-1.85038 1.7357,-3.5347 l 5.03842,-11.77564 4.29789,1.83893 -4.7837,11.18033 c -1.09344,2.5555 -1.98204,4.31111 -2.66578,5.26682 -0.68379,0.95571 -1.49559,1.66195 -2.43539,2.11874 -0.93017,0.46092 -2.01114,0.68553 -3.24294,0.67382 -1.22768,-0.0214 -2.68367,-0.39242 -4.36796,-1.11308 -2.0328,-0.86977 -3.47735,-1.76269 -4.33365,-2.67877 -0.84249,-0.92163 -1.4092,-1.88558 -1.70011,-2.89187 -0.28679,-1.01596 -0.35095,-1.97675 -0.1925,-2.88239 0.24113,-1.33977 0.87114,-3.20029 1.89001,-5.58157 l 4.85826,-11.35456"
         style="font-size:32.3443985px;font-weight:bold;letter-spacing:4.51000023px;fill:#2d2d2d;font-family:Arial;-inkscape-font-specification:Arial Bold"
         id="path3055" />
      <path
         inkscape:connector-curvature="0"
         d="m 536.47707,575.61592 4.45933,-22.71927 4.46326,0.87604 6.32053,16.99711 2.97795,-15.17201 4.2618,0.8365 -4.45932,22.71928 -4.60275,-0.90342 -6.25101,-16.6133 -2.90798,14.81558 -4.26181,-0.83651"
         style="font-size:32.3443985px;font-weight:bold;letter-spacing:4.51000023px;fill:#2d2d2d;font-family:Arial;-inkscape-font-specification:Arial Bold"
         id="path3057" />
      <path
         inkscape:connector-curvature="0"
         d="m 578.66624,571.31157 4.55319,1.37069 c -0.65787,2.53681 -1.78841,4.43294 -3.39162,5.6884 -1.59287,1.24478 -3.63156,1.88535 -6.11607,1.92172 -3.07408,0.045 -5.61604,-0.96553 -7.6259,-3.03156 -2.01001,-2.07656 -3.04168,-4.93612 -3.09499,-8.5787 -0.0564,-3.8531 0.89471,-6.85751 2.85331,-9.01324 1.95844,-2.16621 4.55892,-3.27305 7.80144,-3.32053 2.83193,-0.0414 5.14446,0.76185 6.93763,2.40984 1.06722,0.97421 1.8776,2.38388 2.43112,4.22903 l -4.61072,1.17312 c -0.2913,-1.19613 -0.87893,-2.13522 -1.76288,-2.81727 -0.87345,-0.68217 -1.93129,-1.01418 -3.17354,-0.99601 -1.71602,0.0251 -3.10192,0.66141 -4.1577,1.90885 -1.04527,1.24731 -1.54772,3.25008 -1.50734,6.00831 0.0428,2.92669 0.59971,5.00346 1.67067,6.23031 1.07094,1.22686 2.44862,1.82796 4.13305,1.8033 1.24225,-0.0182 2.30503,-0.42861 3.18834,-1.23128 0.88328,-0.80266 1.50728,-2.05433 1.87201,-3.75498"
         style="font-size:32.3443985px;font-weight:bold;letter-spacing:4.51000023px;fill:#2d2d2d;font-family:Arial;-inkscape-font-specification:Arial Bold"
         id="path3059" />
      <path
         inkscape:connector-curvature="0"
         d="m 591.64211,578.37443 -3.95132,-22.81312 4.60619,-0.79781 3.95132,22.81312 -4.60619,0.79781"
         style="font-size:32.3443985px;font-weight:bold;letter-spacing:4.51000023px;fill:#2d2d2d;font-family:Arial;-inkscape-font-specification:Arial Bold"
         id="path3061" />
      <path
         inkscape:connector-curvature="0"
         d="m 600.43063,565.46073 c -0.77609,-2.22708 -1.09438,-4.21231 -0.95487,-5.9557 0.10908,-1.28677 0.43696,-2.52157 0.98364,-3.70443 0.55664,-1.18628 1.27249,-2.17162 2.14758,-2.95603 1.16115,-1.05129 2.63157,-1.88704 4.41126,-2.50724 3.22133,-1.12253 6.14461,-1.02068 8.76984,0.30557 2.63515,1.32283 4.57291,3.76392 5.81329,7.32327 1.22994,3.52956 1.23368,6.62789 0.0112,9.29498 -1.22596,2.65717 -3.44463,4.54529 -6.656,5.66438 -3.25117,1.13295 -6.18093,1.0445 -8.78928,-0.26535 -2.61181,-1.31979 -4.52404,-3.7196 -5.73668,-7.19945 m 4.49667,-1.73422 c 0.86271,2.47566 2.08922,4.15555 3.67954,5.03967 1.58685,0.8742 3.26017,1.00467 5.01999,0.39141 1.75979,-0.61324 2.98142,-1.74696 3.66491,-3.40116 0.68994,-1.66759 0.59317,-3.76904 -0.29031,-6.30436 -0.87311,-2.50547 -2.07627,-4.18234 -3.60949,-5.03064 -1.52329,-0.85172 -3.19466,-0.96057 -5.01411,-0.32656 -1.81946,0.63406 -3.06769,1.77147 -3.74468,3.41224 -0.68046,1.63086 -0.58241,3.70399 0.29415,6.2194"
         style="font-size:32.3443985px;font-weight:bold;letter-spacing:4.51000023px;fill:#2d2d2d;font-family:Arial;-inkscape-font-specification:Arial Bold"
         id="path3063" />
      <path
         inkscape:connector-curvature="0"
         d="m 632.75944,565.12175 -12.15324,-19.7066 3.87142,-2.38754 16.18143,8.1861 -8.11598,-13.16014 3.69667,-2.27977 12.15324,19.7066 -3.9924,2.46215 -15.86978,-7.95153 7.9253,12.85096 -3.69666,2.27977"
         style="font-size:32.3443985px;font-weight:bold;letter-spacing:4.51000023px;fill:#2d2d2d;font-family:Arial;-inkscape-font-specification:Arial Bold"
         id="path3065" />
    </g>
    <rect
       style="color:#000000;fill:none;stroke:none;stroke-width:7;marker:none;visibility:visible;display:inline;overflow:visible;enable-background:accumulate"
       id="rect3054"
       width="106.06602"
       height="211.12189"
       x="280.58936"
       y="121.63782" />
  </g>
</svg>
